<mxfile host="app.diagrams.net" modified="2022-07-27T06:44:12.675Z" agent="5.0 (Windows NT 10.0; Win64; x64) AppleWebKit/537.36 (KHTML, like Gecko) Chrome/103.0.5060.134 Safari/537.36" etag="GKwGsHolZlHEJhAM85nH" version="20.2.0" type="github">
  <diagram id="j-XDHTBuD2rSp_lL3WaC" name="Page-1">
    <mxGraphModel dx="1422" dy="798" grid="1" gridSize="10" guides="1" tooltips="1" connect="1" arrows="1" fold="1" page="1" pageScale="1" pageWidth="850" pageHeight="1100" background="#CCCCCC" math="0" shadow="1">
      <root>
        <mxCell id="0" />
        <mxCell id="1" parent="0" />
        <mxCell id="kHy15FCeTy088UBHcW_4-3" style="edgeStyle=orthogonalEdgeStyle;rounded=0;orthogonalLoop=1;jettySize=auto;html=1;entryX=0.5;entryY=0;entryDx=0;entryDy=0;" parent="1" source="kHy15FCeTy088UBHcW_4-1" target="kHy15FCeTy088UBHcW_4-2" edge="1">
          <mxGeometry relative="1" as="geometry" />
        </mxCell>
        <mxCell id="kHy15FCeTy088UBHcW_4-1" value="Api sent" style="ellipse;whiteSpace=wrap;html=1;fillColor=#d5e8d4;strokeColor=#82b366;" parent="1" vertex="1">
          <mxGeometry x="365" y="20" width="120" height="80" as="geometry" />
        </mxCell>
        <mxCell id="kHy15FCeTy088UBHcW_4-5" style="edgeStyle=orthogonalEdgeStyle;rounded=0;orthogonalLoop=1;jettySize=auto;html=1;" parent="1" source="kHy15FCeTy088UBHcW_4-2" target="kHy15FCeTy088UBHcW_4-4" edge="1">
          <mxGeometry relative="1" as="geometry" />
        </mxCell>
        <mxCell id="kHy15FCeTy088UBHcW_4-7" style="edgeStyle=orthogonalEdgeStyle;rounded=0;orthogonalLoop=1;jettySize=auto;html=1;" parent="1" source="kHy15FCeTy088UBHcW_4-2" target="kHy15FCeTy088UBHcW_4-6" edge="1">
          <mxGeometry relative="1" as="geometry" />
        </mxCell>
        <mxCell id="kHy15FCeTy088UBHcW_4-2" value="if featureToggle is empty" style="rhombus;whiteSpace=wrap;html=1;fillColor=#dae8fc;strokeColor=#6c8ebf;" parent="1" vertex="1">
          <mxGeometry x="330" y="220" width="190" height="60" as="geometry" />
        </mxCell>
        <mxCell id="kHy15FCeTy088UBHcW_4-12" style="edgeStyle=orthogonalEdgeStyle;rounded=0;orthogonalLoop=1;jettySize=auto;html=1;" parent="1" source="kHy15FCeTy088UBHcW_4-4" target="kHy15FCeTy088UBHcW_4-10" edge="1">
          <mxGeometry relative="1" as="geometry" />
        </mxCell>
        <mxCell id="kHy15FCeTy088UBHcW_4-4" value="get all featureToggles" style="rounded=0;whiteSpace=wrap;html=1;" parent="1" vertex="1">
          <mxGeometry x="200" y="370" width="120" height="60" as="geometry" />
        </mxCell>
        <mxCell id="kHy15FCeTy088UBHcW_4-13" style="edgeStyle=orthogonalEdgeStyle;rounded=0;orthogonalLoop=1;jettySize=auto;html=1;" parent="1" source="kHy15FCeTy088UBHcW_4-6" target="kHy15FCeTy088UBHcW_4-10" edge="1">
          <mxGeometry relative="1" as="geometry" />
        </mxCell>
        <mxCell id="kHy15FCeTy088UBHcW_4-6" value="find selected featureToggles" style="rounded=0;whiteSpace=wrap;html=1;" parent="1" vertex="1">
          <mxGeometry x="530" y="370" width="120" height="60" as="geometry" />
        </mxCell>
        <mxCell id="kHy15FCeTy088UBHcW_4-8" value="Yes" style="text;html=1;strokeColor=none;fillColor=none;align=center;verticalAlign=middle;whiteSpace=wrap;rounded=0;" parent="1" vertex="1">
          <mxGeometry x="260" y="220" width="60" height="30" as="geometry" />
        </mxCell>
        <mxCell id="kHy15FCeTy088UBHcW_4-9" value="No" style="text;html=1;strokeColor=none;fillColor=none;align=center;verticalAlign=middle;whiteSpace=wrap;rounded=0;" parent="1" vertex="1">
          <mxGeometry x="530" y="220" width="60" height="30" as="geometry" />
        </mxCell>
        <mxCell id="kHy15FCeTy088UBHcW_4-15" style="edgeStyle=orthogonalEdgeStyle;rounded=0;orthogonalLoop=1;jettySize=auto;html=1;entryX=0.5;entryY=0;entryDx=0;entryDy=0;" parent="1" source="kHy15FCeTy088UBHcW_4-10" target="kHy15FCeTy088UBHcW_4-14" edge="1">
          <mxGeometry relative="1" as="geometry" />
        </mxCell>
        <mxCell id="kHy15FCeTy088UBHcW_4-10" value="fill newList of featuretoggles" style="rounded=0;whiteSpace=wrap;html=1;" parent="1" vertex="1">
          <mxGeometry x="365" y="500" width="120" height="60" as="geometry" />
        </mxCell>
        <mxCell id="kHy15FCeTy088UBHcW_4-17" style="edgeStyle=orthogonalEdgeStyle;rounded=0;orthogonalLoop=1;jettySize=auto;html=1;entryX=0.5;entryY=0;entryDx=0;entryDy=0;" parent="1" source="kHy15FCeTy088UBHcW_4-14" target="kHy15FCeTy088UBHcW_4-23" edge="1">
          <mxGeometry relative="1" as="geometry">
            <mxPoint x="275" y="750" as="targetPoint" />
          </mxGeometry>
        </mxCell>
        <mxCell id="kHy15FCeTy088UBHcW_4-19" style="edgeStyle=orthogonalEdgeStyle;rounded=0;orthogonalLoop=1;jettySize=auto;html=1;entryX=0.5;entryY=0;entryDx=0;entryDy=0;" parent="1" source="kHy15FCeTy088UBHcW_4-14" edge="1">
          <mxGeometry relative="1" as="geometry">
            <mxPoint x="560" y="760" as="targetPoint" />
          </mxGeometry>
        </mxCell>
        <mxCell id="kHy15FCeTy088UBHcW_4-14" value="is status on" style="rhombus;whiteSpace=wrap;html=1;fillColor=#dae8fc;strokeColor=#6c8ebf;" parent="1" vertex="1">
          <mxGeometry x="363" y="630" width="125" height="50" as="geometry" />
        </mxCell>
        <mxCell id="kHy15FCeTy088UBHcW_4-20" value="No" style="text;html=1;strokeColor=none;fillColor=none;align=center;verticalAlign=middle;whiteSpace=wrap;rounded=0;" parent="1" vertex="1">
          <mxGeometry x="500" y="620" width="60" height="30" as="geometry" />
        </mxCell>
        <mxCell id="kHy15FCeTy088UBHcW_4-22" value="Yes" style="text;html=1;strokeColor=none;fillColor=none;align=center;verticalAlign=middle;whiteSpace=wrap;rounded=0;" parent="1" vertex="1">
          <mxGeometry x="290" y="620" width="60" height="30" as="geometry" />
        </mxCell>
        <mxCell id="kHy15FCeTy088UBHcW_4-26" style="edgeStyle=orthogonalEdgeStyle;rounded=0;orthogonalLoop=1;jettySize=auto;html=1;entryX=0.5;entryY=0;entryDx=0;entryDy=0;" parent="1" source="kHy15FCeTy088UBHcW_4-23" edge="1">
          <mxGeometry relative="1" as="geometry">
            <mxPoint x="140" y="970" as="targetPoint" />
          </mxGeometry>
        </mxCell>
        <mxCell id="kHy15FCeTy088UBHcW_4-29" style="edgeStyle=orthogonalEdgeStyle;rounded=0;orthogonalLoop=1;jettySize=auto;html=1;" parent="1" source="kHy15FCeTy088UBHcW_4-23" target="kHy15FCeTy088UBHcW_4-28" edge="1">
          <mxGeometry relative="1" as="geometry" />
        </mxCell>
        <mxCell id="kHy15FCeTy088UBHcW_4-23" value="if FIlterKey empty" style="rhombus;whiteSpace=wrap;html=1;fillColor=#dae8fc;strokeColor=#6c8ebf;" parent="1" vertex="1">
          <mxGeometry x="207.5" y="870" width="135" height="50" as="geometry" />
        </mxCell>
        <mxCell id="kHy15FCeTy088UBHcW_4-27" value="Yes" style="text;html=1;strokeColor=none;fillColor=none;align=center;verticalAlign=middle;whiteSpace=wrap;rounded=0;" parent="1" vertex="1">
          <mxGeometry x="130" y="870" width="60" height="30" as="geometry" />
        </mxCell>
        <mxCell id="kHy15FCeTy088UBHcW_4-81" style="edgeStyle=orthogonalEdgeStyle;rounded=0;orthogonalLoop=1;jettySize=auto;html=1;" parent="1" source="kHy15FCeTy088UBHcW_4-28" target="kHy15FCeTy088UBHcW_4-33" edge="1">
          <mxGeometry relative="1" as="geometry" />
        </mxCell>
        <mxCell id="kHy15FCeTy088UBHcW_4-28" value="get all filters from featuretoggle" style="rounded=0;whiteSpace=wrap;html=1;" parent="1" vertex="1">
          <mxGeometry x="343" y="960" width="120" height="60" as="geometry" />
        </mxCell>
        <mxCell id="kHy15FCeTy088UBHcW_4-31" value="No" style="text;html=1;strokeColor=none;fillColor=none;align=center;verticalAlign=middle;whiteSpace=wrap;rounded=0;" parent="1" vertex="1">
          <mxGeometry x="350" y="870" width="60" height="30" as="geometry" />
        </mxCell>
        <mxCell id="kHy15FCeTy088UBHcW_4-82" style="edgeStyle=orthogonalEdgeStyle;rounded=0;orthogonalLoop=1;jettySize=auto;html=1;entryX=0.5;entryY=0;entryDx=0;entryDy=0;" parent="1" source="kHy15FCeTy088UBHcW_4-33" target="kHy15FCeTy088UBHcW_4-35" edge="1">
          <mxGeometry relative="1" as="geometry">
            <mxPoint x="410" y="1330" as="targetPoint" />
          </mxGeometry>
        </mxCell>
        <mxCell id="kHy15FCeTy088UBHcW_4-33" value="find Name from filterkeys" style="rounded=0;whiteSpace=wrap;html=1;" parent="1" vertex="1">
          <mxGeometry x="349" y="1100" width="120" height="60" as="geometry" />
        </mxCell>
        <mxCell id="kHy15FCeTy088UBHcW_4-46" style="edgeStyle=orthogonalEdgeStyle;rounded=0;orthogonalLoop=1;jettySize=auto;html=1;entryX=0.5;entryY=0;entryDx=0;entryDy=0;" parent="1" source="kHy15FCeTy088UBHcW_4-35" target="kHy15FCeTy088UBHcW_4-45" edge="1">
          <mxGeometry relative="1" as="geometry" />
        </mxCell>
        <mxCell id="kHy15FCeTy088UBHcW_4-55" style="edgeStyle=orthogonalEdgeStyle;rounded=0;orthogonalLoop=1;jettySize=auto;html=1;entryX=0.5;entryY=0;entryDx=0;entryDy=0;" parent="1" source="kHy15FCeTy088UBHcW_4-35" edge="1" target="wpWeY2cVb0XNtCqaMB6h-1">
          <mxGeometry relative="1" as="geometry">
            <mxPoint x="630" y="1420" as="targetPoint" />
          </mxGeometry>
        </mxCell>
        <mxCell id="kHy15FCeTy088UBHcW_4-35" value="if name exist in filterKeys" style="rhombus;whiteSpace=wrap;html=1;fillColor=#dae8fc;strokeColor=#6c8ebf;" parent="1" vertex="1">
          <mxGeometry x="322.5" y="1220" width="123" height="80" as="geometry" />
        </mxCell>
        <mxCell id="kHy15FCeTy088UBHcW_4-44" value="Yes" style="text;html=1;strokeColor=none;fillColor=none;align=center;verticalAlign=middle;whiteSpace=wrap;rounded=0;" parent="1" vertex="1">
          <mxGeometry x="332.5" y="1320" width="60" height="30" as="geometry" />
        </mxCell>
        <mxCell id="kHy15FCeTy088UBHcW_4-49" style="edgeStyle=orthogonalEdgeStyle;rounded=0;orthogonalLoop=1;jettySize=auto;html=1;entryX=0.5;entryY=0;entryDx=0;entryDy=0;" parent="1" source="kHy15FCeTy088UBHcW_4-45" target="wpWeY2cVb0XNtCqaMB6h-1" edge="1">
          <mxGeometry relative="1" as="geometry">
            <mxPoint x="505.25" y="1520" as="targetPoint" />
            <Array as="points">
              <mxPoint x="570" y="1460" />
              <mxPoint x="570" y="1520" />
            </Array>
          </mxGeometry>
        </mxCell>
        <mxCell id="kHy15FCeTy088UBHcW_4-50" style="edgeStyle=orthogonalEdgeStyle;rounded=0;orthogonalLoop=1;jettySize=auto;html=1;" parent="1" source="kHy15FCeTy088UBHcW_4-45" edge="1">
          <mxGeometry relative="1" as="geometry">
            <mxPoint x="240" y="1540" as="targetPoint" />
          </mxGeometry>
        </mxCell>
        <mxCell id="kHy15FCeTy088UBHcW_4-45" value="is status of filter key active" style="rhombus;whiteSpace=wrap;html=1;fillColor=#dae8fc;strokeColor=#6c8ebf;" parent="1" vertex="1">
          <mxGeometry x="307.5" y="1430" width="130" height="60" as="geometry" />
        </mxCell>
        <mxCell id="kHy15FCeTy088UBHcW_4-51" value="Yes" style="text;html=1;strokeColor=none;fillColor=none;align=center;verticalAlign=middle;whiteSpace=wrap;rounded=0;" parent="1" vertex="1">
          <mxGeometry x="240" y="1430" width="60" height="30" as="geometry" />
        </mxCell>
        <mxCell id="kHy15FCeTy088UBHcW_4-53" value="No" style="text;html=1;strokeColor=none;fillColor=none;align=center;verticalAlign=middle;whiteSpace=wrap;rounded=0;" parent="1" vertex="1">
          <mxGeometry x="450" y="1430" width="60" height="30" as="geometry" />
        </mxCell>
        <mxCell id="kHy15FCeTy088UBHcW_4-56" value="No" style="text;html=1;strokeColor=none;fillColor=none;align=center;verticalAlign=middle;whiteSpace=wrap;rounded=0;" parent="1" vertex="1">
          <mxGeometry x="520" y="1230" width="60" height="30" as="geometry" />
        </mxCell>
        <mxCell id="kHy15FCeTy088UBHcW_4-59" style="edgeStyle=orthogonalEdgeStyle;rounded=0;orthogonalLoop=1;jettySize=auto;html=1;entryX=0.5;entryY=0;entryDx=0;entryDy=0;" parent="1" source="kHy15FCeTy088UBHcW_4-57" target="kHy15FCeTy088UBHcW_4-58" edge="1">
          <mxGeometry relative="1" as="geometry" />
        </mxCell>
        <mxCell id="kHy15FCeTy088UBHcW_4-57" value="get all include only of filterKeys" style="rounded=0;whiteSpace=wrap;html=1;" parent="1" vertex="1">
          <mxGeometry x="180" y="1540" width="120" height="60" as="geometry" />
        </mxCell>
        <mxCell id="kHy15FCeTy088UBHcW_4-61" style="edgeStyle=orthogonalEdgeStyle;rounded=0;orthogonalLoop=1;jettySize=auto;html=1;" parent="1" source="kHy15FCeTy088UBHcW_4-58" edge="1">
          <mxGeometry relative="1" as="geometry">
            <mxPoint x="460" y="1760" as="targetPoint" />
          </mxGeometry>
        </mxCell>
        <mxCell id="kHy15FCeTy088UBHcW_4-58" value="Evaluate all status of includeonly" style="rounded=0;whiteSpace=wrap;html=1;" parent="1" vertex="1">
          <mxGeometry x="180" y="1650" width="120" height="60" as="geometry" />
        </mxCell>
        <mxCell id="kHy15FCeTy088UBHcW_4-69" style="edgeStyle=orthogonalEdgeStyle;rounded=0;orthogonalLoop=1;jettySize=auto;html=1;" parent="1" source="kHy15FCeTy088UBHcW_4-66" target="kHy15FCeTy088UBHcW_4-68" edge="1">
          <mxGeometry relative="1" as="geometry" />
        </mxCell>
        <mxCell id="kHy15FCeTy088UBHcW_4-66" value="get include only status" style="rounded=0;whiteSpace=wrap;html=1;" parent="1" vertex="1">
          <mxGeometry x="402.5" y="1760" width="120" height="60" as="geometry" />
        </mxCell>
        <mxCell id="kHy15FCeTy088UBHcW_4-71" style="edgeStyle=orthogonalEdgeStyle;rounded=0;orthogonalLoop=1;jettySize=auto;html=1;" parent="1" source="kHy15FCeTy088UBHcW_4-68" target="kHy15FCeTy088UBHcW_4-97" edge="1">
          <mxGeometry relative="1" as="geometry">
            <mxPoint x="240" y="2100" as="targetPoint" />
          </mxGeometry>
        </mxCell>
        <mxCell id="kHy15FCeTy088UBHcW_4-75" style="edgeStyle=orthogonalEdgeStyle;rounded=0;orthogonalLoop=1;jettySize=auto;html=1;" parent="1" source="kHy15FCeTy088UBHcW_4-68" edge="1">
          <mxGeometry relative="1" as="geometry">
            <mxPoint x="487.5" y="2100" as="targetPoint" />
          </mxGeometry>
        </mxCell>
        <mxCell id="kHy15FCeTy088UBHcW_4-68" value="is status is on" style="rhombus;whiteSpace=wrap;html=1;fillColor=#dae8fc;strokeColor=#6c8ebf;" parent="1" vertex="1">
          <mxGeometry x="305" y="2000" width="110" height="50" as="geometry" />
        </mxCell>
        <mxCell id="kHy15FCeTy088UBHcW_4-72" value="Yes" style="text;html=1;strokeColor=none;fillColor=none;align=center;verticalAlign=middle;whiteSpace=wrap;rounded=0;" parent="1" vertex="1">
          <mxGeometry x="233" y="1990" width="60" height="30" as="geometry" />
        </mxCell>
        <mxCell id="kHy15FCeTy088UBHcW_4-76" value="No" style="text;html=1;strokeColor=none;fillColor=none;align=center;verticalAlign=middle;whiteSpace=wrap;rounded=0;" parent="1" vertex="1">
          <mxGeometry x="430" y="2000" width="60" height="30" as="geometry" />
        </mxCell>
        <mxCell id="kHy15FCeTy088UBHcW_4-87" value="is Active off" style="ellipse;whiteSpace=wrap;html=1;fillColor=#f8cecc;strokeColor=#b85450;" parent="1" vertex="1">
          <mxGeometry x="501" y="760" width="120" height="40" as="geometry" />
        </mxCell>
        <mxCell id="kHy15FCeTy088UBHcW_4-90" value="is Active on" style="ellipse;whiteSpace=wrap;html=1;fillColor=#e1d5e7;strokeColor=#9673a6;" parent="1" vertex="1">
          <mxGeometry x="80" y="970" width="120" height="40" as="geometry" />
        </mxCell>
        <mxCell id="kHy15FCeTy088UBHcW_4-94" style="edgeStyle=orthogonalEdgeStyle;rounded=0;orthogonalLoop=1;jettySize=auto;html=1;entryX=1;entryY=0.5;entryDx=0;entryDy=0;" parent="1" source="kHy15FCeTy088UBHcW_4-93" edge="1">
          <mxGeometry relative="1" as="geometry">
            <mxPoint x="300" y="2130" as="targetPoint" />
          </mxGeometry>
        </mxCell>
        <mxCell id="kHy15FCeTy088UBHcW_4-96" style="edgeStyle=orthogonalEdgeStyle;rounded=0;orthogonalLoop=1;jettySize=auto;html=1;" parent="1" source="kHy15FCeTy088UBHcW_4-93" edge="1">
          <mxGeometry relative="1" as="geometry">
            <mxPoint x="602.5" y="2220" as="targetPoint" />
          </mxGeometry>
        </mxCell>
        <mxCell id="kHy15FCeTy088UBHcW_4-93" value="is allinclude onlys are disabled" style="rhombus;whiteSpace=wrap;html=1;fillColor=#dae8fc;strokeColor=#6c8ebf;" parent="1" vertex="1">
          <mxGeometry x="430" y="2100" width="110" height="50" as="geometry" />
        </mxCell>
        <mxCell id="kHy15FCeTy088UBHcW_4-95" value="Yes" style="text;html=1;strokeColor=none;fillColor=none;align=center;verticalAlign=middle;whiteSpace=wrap;rounded=0;" parent="1" vertex="1">
          <mxGeometry x="337.5" y="2100" width="60" height="30" as="geometry" />
        </mxCell>
        <mxCell id="kHy15FCeTy088UBHcW_4-97" value="is Active on" style="ellipse;whiteSpace=wrap;html=1;fillColor=#e1d5e7;strokeColor=#9673a6;" parent="1" vertex="1">
          <mxGeometry x="180" y="2110" width="120" height="40" as="geometry" />
        </mxCell>
        <mxCell id="kHy15FCeTy088UBHcW_4-98" value="is Active off" style="ellipse;whiteSpace=wrap;html=1;fillColor=#f8cecc;strokeColor=#b85450;" parent="1" vertex="1">
          <mxGeometry x="540" y="2220" width="120" height="40" as="geometry" />
        </mxCell>
        <mxCell id="wpWeY2cVb0XNtCqaMB6h-3" style="edgeStyle=orthogonalEdgeStyle;rounded=0;orthogonalLoop=1;jettySize=auto;html=1;" edge="1" parent="1" source="wpWeY2cVb0XNtCqaMB6h-1" target="wpWeY2cVb0XNtCqaMB6h-2">
          <mxGeometry relative="1" as="geometry">
            <Array as="points">
              <mxPoint x="732" y="1550" />
              <mxPoint x="732" y="1580" />
              <mxPoint x="754" y="1580" />
            </Array>
          </mxGeometry>
        </mxCell>
        <mxCell id="wpWeY2cVb0XNtCqaMB6h-6" style="edgeStyle=orthogonalEdgeStyle;rounded=0;orthogonalLoop=1;jettySize=auto;html=1;entryX=0.5;entryY=0;entryDx=0;entryDy=0;" edge="1" parent="1" source="wpWeY2cVb0XNtCqaMB6h-1" target="wpWeY2cVb0XNtCqaMB6h-5">
          <mxGeometry relative="1" as="geometry">
            <Array as="points">
              <mxPoint x="529" y="1550" />
            </Array>
          </mxGeometry>
        </mxCell>
        <mxCell id="wpWeY2cVb0XNtCqaMB6h-1" value="is all status are off in filterkeys" style="rhombus;whiteSpace=wrap;html=1;fillColor=#dae8fc;strokeColor=#6c8ebf;" vertex="1" parent="1">
          <mxGeometry x="584" y="1520" width="127.5" height="60" as="geometry" />
        </mxCell>
        <mxCell id="wpWeY2cVb0XNtCqaMB6h-2" value="is Active off" style="ellipse;whiteSpace=wrap;html=1;fillColor=#f8cecc;strokeColor=#b85450;" vertex="1" parent="1">
          <mxGeometry x="694" y="1600" width="120" height="40" as="geometry" />
        </mxCell>
        <mxCell id="wpWeY2cVb0XNtCqaMB6h-4" value="No" style="text;html=1;strokeColor=none;fillColor=none;align=center;verticalAlign=middle;whiteSpace=wrap;rounded=0;" vertex="1" parent="1">
          <mxGeometry x="714" y="1530" width="60" height="30" as="geometry" />
        </mxCell>
        <mxCell id="wpWeY2cVb0XNtCqaMB6h-5" value="is Active on" style="ellipse;whiteSpace=wrap;html=1;fillColor=#e1d5e7;strokeColor=#9673a6;" vertex="1" parent="1">
          <mxGeometry x="469" y="1590" width="120" height="40" as="geometry" />
        </mxCell>
        <mxCell id="wpWeY2cVb0XNtCqaMB6h-7" value="Yes" style="text;html=1;strokeColor=none;fillColor=none;align=center;verticalAlign=middle;whiteSpace=wrap;rounded=0;" vertex="1" parent="1">
          <mxGeometry x="506.5" y="1520" width="60" height="30" as="geometry" />
        </mxCell>
      </root>
    </mxGraphModel>
  </diagram>
</mxfile>
